<?xml version="1.0" encoding="utf-8"?>
<!-- Generator: Adobe Illustrator 20.0.0, SVG Export Plug-In . SVG Version: 6.00 Build 0)  -->
<svg version="1.1" id="Layer_1" xmlns="http://www.w3.org/2000/svg" xmlns:xlink="http://www.w3.org/1999/xlink" x="0px" y="0px"
	 viewBox="0 0 16 16" style="enable-background:new 0 0 16 16;" xml:space="preserve">
<g>
	<path d="M15.6,13.1l-3-3c0.6-0.9,0.9-2,0.9-3.2c0-3.6-3-6.6-6.6-6.6c-3.6,0-6.6,3-6.6,6.6c0,3.6,3,6.6,6.6,6.6
		c1.4,0,2.7-0.4,3.8-1.2l2.9,2.8c0.4,0.4,1,0.4,1.4,0l0.6-0.6C16,14.1,16,13.5,15.6,13.1z M6.9,9.6c-1.5,0-2.7-1.2-2.7-2.7
		s1.2-2.7,2.7-2.7s2.7,1.2,2.7,2.7C9.7,8.4,8.4,9.6,6.9,9.6z"/>
</g>
</svg>
