<?xml version="1.0" encoding="utf-8"?>
<!-- Generator: Adobe Illustrator 22.1.0, SVG Export Plug-In . SVG Version: 6.00 Build 0)  -->
<svg version="1.1" id="Layer_1" xmlns="http://www.w3.org/2000/svg" xmlns:xlink="http://www.w3.org/1999/xlink" x="0px" y="0px"
	 viewBox="0 0 500 112.3" style="enable-background:new 0 0 500 112.3;" xml:space="preserve">
<style type="text/css">
	.st0{enable-background:new    ;}
</style>
<g>
	<path d="M1,40.7v-0.2C1,18.8,17.4,1,40.8,1c14.4,0,23,4.8,30.1,11.8L60.2,25.1c-5.9-5.3-11.9-8.6-19.5-8.6
		c-12.9,0-22.2,10.7-22.2,23.8v0.2c0,13.1,9.1,24,22.2,24c8.7,0,14.1-3.5,20.1-8.9l10.7,10.8C63.6,74.8,54.9,80,40.2,80
		C17.7,80,1,62.7,1,40.7z"/>
	<path d="M98.3,1.8h15.5l32.7,76.9H129l-7-17.1H89.7l-7,17.1H65.6L98.3,1.8z M116,46.7L105.9,22L95.7,46.7H116z"/>
	<path d="M147.2,2.3h34.9c9.7,0,17.2,2.7,22.3,7.7c4.3,4.3,6.5,10.3,6.5,17.5v0.2c0,12.3-6.7,20.1-16.4,23.7l18.7,27.3h-19.6
		l-16.4-24.4H164v24.4h-16.8V2.3z M181,39.4c8.2,0,12.9-4.4,12.9-10.8v-0.2c0-7.2-5-10.9-13.2-10.9H164v21.9H181z"/>
	<path d="M213.9,2.3h15.5l35.8,47v-47h16.6v76.4h-14.3l-37-48.6v48.6h-16.6V2.3z"/>
	<path d="M286.7,2.3h57.6v14.9h-40.9v15.5H334v14.9h-30.6v16h41.5v14.9h-58.2L286.7,2.3L286.7,2.3z"/>
	<path d="M340.4,40.7v-0.2c0-21.7,16.9-39.5,40-39.5c13.7,0,22,3.7,30,10.5l-10.6,12.8c-5.9-4.9-11.1-7.7-20-7.7
		c-12.2,0-21.9,10.8-21.9,23.8v0.2c0,14,9.6,24.2,23.1,24.2c6.1,0,11.6-1.5,15.8-4.6v-11H380V34.7h33.2v33.2
		c-7.9,6.7-18.7,12.1-32.6,12.1C356.8,80,340.4,63.3,340.4,40.7z"/>
	<path d="M417.9,2.3h16.8v76.4h-16.8V2.3z"/>
	<path d="M440.5,2.3h57.6v14.9h-40.9v15.5h30.6v14.9h-30.6v16h41.5v14.9h-58.2V2.3z"/>
</g>
<g class="st0">
	<path d="M2.4,85h1.8L14.3,100L24.4,85h1.8v25.3h-1.9V88.3l-10,14.5h-0.1l-10-14.5v21.9H2.4V85z"/>
	<path d="M33.3,99.8V85h1.9v14.6c0,6,3.2,9.4,8.6,9.4c5.1,0,8.4-3.1,8.4-9.2V85H54v14.5c0,7.3-4.2,11.1-10.4,11.1
		C37.6,110.7,33.3,106.9,33.3,99.8z"/>
	<path d="M59.5,106.6l1.2-1.4c2.8,2.6,5.3,3.8,9.1,3.8c3.8,0,6.4-2.1,6.4-5v-0.1c0-2.7-1.4-4.2-7.1-5.4c-6.1-1.2-8.5-3.3-8.5-7.1
		v-0.1c0-3.8,3.4-6.6,8.1-6.6c3.7,0,6.1,1,8.7,3.1l-1.2,1.5c-2.4-2.1-4.8-2.9-7.5-2.9c-3.7,0-6.2,2.1-6.2,4.8v0.1
		c0,2.7,1.4,4.3,7.4,5.5c5.8,1.2,8.3,3.3,8.3,7v0.1c0,4.1-3.5,6.9-8.4,6.9C65.6,110.6,62.5,109.3,59.5,106.6z"/>
	<path d="M84.2,85h18v1.7H86.1v9.9h14.5v1.7H86.1v10.1h16.3v1.7H84.2V85z"/>
	<path d="M108,99.8V85h1.9v14.6c0,6,3.2,9.4,8.6,9.4c5.1,0,8.4-3.1,8.4-9.2V85h1.9v14.5c0,7.3-4.2,11.1-10.4,11.1
		C112.3,110.7,108,106.9,108,99.8z"/>
	<path d="M135.8,85h1.8l10.1,14.9L157.9,85h1.8v25.3h-1.9V88.3l-10,14.5h-0.1l-10-14.5v21.9h-1.8V85z"/>
	<path d="M165.5,106.6l1.2-1.4c2.8,2.6,5.3,3.8,9.1,3.8c3.8,0,6.4-2.1,6.4-5v-0.1c0-2.7-1.4-4.2-7.1-5.4c-6.1-1.2-8.5-3.3-8.5-7.1
		v-0.1c0-3.8,3.4-6.6,8.1-6.6c3.7,0,6.1,1,8.7,3.1l-1.2,1.5c-2.4-2.1-4.8-2.9-7.5-2.9c-3.7,0-6.2,2.1-6.2,4.8v0.1
		c0,2.7,1.4,4.3,7.4,5.5c5.8,1.2,8.3,3.3,8.3,7v0.1c0,4.1-3.5,6.9-8.4,6.9C171.7,110.6,168.6,109.3,165.5,106.6z"/>
	<path d="M200,97.7L200,97.7c0-7,5.1-13.1,12.7-13.1s12.7,6.1,12.7,13v0.1c0,6.9-5.1,13.1-12.7,13.1S200,104.6,200,97.7z
		 M223.4,97.7L223.4,97.7c0-6.3-4.5-11.4-10.8-11.4s-10.7,5.1-10.7,11.3v0.1c0,6.2,4.5,11.4,10.8,11.4S223.4,104,223.4,97.7z"/>
	<path d="M231.8,85h17.8v1.7h-15.9v10.4h14.3v1.7h-14.3v11.4h-1.9V85z"/>
	<path d="M266.3,85h9.2c5.6,0,9.4,2.9,9.4,7.7v0.1c0,5.3-4.6,8-9.9,8h-6.8v9.4h-1.9V85z M275.1,99.1c4.7,0,7.9-2.5,7.9-6.2v-0.1
		c0-4-3.1-6.1-7.7-6.1h-7.1v12.4H275.1z"/>
	<path d="M290.6,85h1.9v25.3h-1.9V85z"/>
	<path d="M307.3,86.8h-8.8V85h19.5v1.7h-8.8v23.5h-1.9V86.8z"/>
	<path d="M330.6,86.8h-8.8V85h19.5v1.7h-8.8v23.5h-1.9V86.8z"/>
	<path d="M344.9,106.6l1.2-1.4c2.8,2.6,5.3,3.8,9.1,3.8c3.8,0,6.4-2.1,6.4-5v-0.1c0-2.7-1.4-4.2-7.1-5.4c-6.1-1.2-8.5-3.3-8.5-7.1
		v-0.1c0-3.8,3.4-6.6,8.1-6.6c3.7,0,6.1,1,8.7,3.1l-1.2,1.5c-2.4-2.1-4.8-2.9-7.5-2.9c-3.7,0-6.2,2.1-6.2,4.8v0.1
		c0,2.7,1.4,4.3,7.4,5.5c5.8,1.2,8.3,3.3,8.3,7v0.1c0,4.1-3.5,6.9-8.4,6.9C351,110.6,347.9,109.3,344.9,106.6z"/>
	<path d="M369.6,85H380c2.9,0,5.2,0.8,6.6,2.2c1,1,1.6,2.4,1.6,4v0.1c0,3.4-2.2,5.2-4.3,6c3,0.8,5.7,2.5,5.7,6v0.1
		c0,4.2-3.6,6.9-9.1,6.9h-11V85z M379.8,96.7c3.8,0,6.5-1.8,6.5-5.2v-0.1c0-2.8-2.3-4.7-6.3-4.7h-8.5v9.9H379.8z M380.6,108.5
		c4.3,0,7.1-2,7.1-5.2v-0.1c0-3.1-2.7-4.9-7.7-4.9h-8.6v10.1H380.6z"/>
	<path d="M395.3,99.8V85h1.9v14.6c0,6,3.2,9.4,8.6,9.4c5.1,0,8.4-3.1,8.4-9.2V85h1.9v14.5c0,7.3-4.2,11.1-10.4,11.1
		C399.5,110.7,395.3,106.9,395.3,99.8z"/>
	<path d="M423.1,85h10.6c3.1,0,5.6,1,7.1,2.5c1.2,1.2,1.9,2.9,1.9,4.7v0.1c0,4.2-3.1,6.6-7.4,7.2l8.3,10.8h-2.4l-8-10.5H425v10.5
		h-1.9V85z M433.5,98.1c4.2,0,7.4-2.1,7.4-5.8v-0.1c0-3.4-2.7-5.5-7.3-5.5H425v11.4H433.5z"/>
	<path d="M448.1,97.7L448.1,97.7c0-6.9,4.9-13.1,12.5-13.1c4.1,0,6.7,1.2,9.2,3.3l-1.2,1.4c-2-1.7-4.3-3-8.1-3
		c-6.1,0-10.4,5.2-10.4,11.3v0.1c0,6.5,4.1,11.4,10.8,11.4c3.2,0,6.2-1.3,8-2.9v-7.3h-8.4v-1.7h10.2v9.7c-2.3,2-5.8,3.8-9.9,3.8
		C452.8,110.7,448.1,104.8,448.1,97.7z"/>
	<path d="M477.5,85h1.9v11.7h16.2V85h1.9v25.3h-1.9V98.4h-16.2v11.8h-1.9V85z"/>
</g>
</svg>
