<?xml version="1.0" encoding="utf-8"?>
<!-- Generator: Adobe Illustrator 22.1.0, SVG Export Plug-In . SVG Version: 6.00 Build 0)  -->
<svg version="1.1" id="Layer_1" xmlns="http://www.w3.org/2000/svg" xmlns:xlink="http://www.w3.org/1999/xlink" x="0px" y="0px"
	 viewBox="0 0 500 112.3" style="enable-background:new 0 0 500 112.3;" xml:space="preserve">
<style type="text/css">
	.st0{font-family:'Gotham-Light';}
	.st1{font-size:36.0924px;}
</style>
<g>
	<path d="M1,40.7v-0.2C1,18.8,17.4,1,40.8,1c14.4,0,23,4.8,30.1,11.8L60.2,25.1c-5.9-5.3-11.9-8.6-19.5-8.6
		c-12.9,0-22.2,10.7-22.2,23.8v0.2c0,13.1,9.1,24,22.2,24c8.7,0,14.1-3.5,20.1-8.9l10.7,10.8C63.6,74.8,54.9,80,40.2,80
		C17.7,80,1,62.7,1,40.7z"/>
	<path d="M98.3,1.8h15.5l32.7,76.9H129l-7-17.1H89.7l-7,17.1H65.6L98.3,1.8z M116,46.7L105.9,22L95.7,46.7H116z"/>
	<path d="M147.2,2.3h34.9c9.7,0,17.2,2.7,22.3,7.7c4.3,4.3,6.5,10.3,6.5,17.5v0.2c0,12.3-6.7,20.1-16.4,23.7l18.7,27.3h-19.6
		l-16.4-24.4H164v24.4h-16.8V2.3z M181,39.4c8.2,0,12.9-4.4,12.9-10.8v-0.2c0-7.2-5-10.9-13.2-10.9H164v21.9H181z"/>
	<path d="M213.9,2.3h15.5l35.8,47v-47h16.6v76.4h-14.3l-37-48.6v48.6h-16.6V2.3z"/>
	<path d="M286.7,2.3h57.6v14.9h-40.9v15.5H334v14.9h-30.6v16h41.5v14.9h-58.2V2.3z"/>
	<path d="M340.4,40.7v-0.2c0-21.7,16.9-39.5,40-39.5c13.7,0,22,3.7,30,10.5l-10.6,12.8c-5.9-4.9-11.1-7.7-20-7.7
		c-12.2,0-21.9,10.8-21.9,23.8v0.2c0,14,9.6,24.2,23.1,24.2c6.1,0,11.6-1.5,15.8-4.6V49.2H380V34.7h33.2v33.2
		c-7.9,6.7-18.7,12.1-32.6,12.1C356.8,80,340.4,63.3,340.4,40.7z"/>
	<path d="M417.9,2.3h16.8v76.4h-16.8V2.3z"/>
	<path d="M440.5,2.3h57.6v14.9h-40.9v15.5h30.6v14.9h-30.6v16h41.5v14.9h-58.2V2.3z"/>
</g>
<text transform="matrix(1 0 0 1 -1.4001 111.2789)" class="st0 st1">MUSEUMS OF PITTSBURGH</text>
</svg>
