<?xml version="1.0" encoding="utf-8"?>
<!-- Generator: Adobe Illustrator 22.1.0, SVG Export Plug-In . SVG Version: 6.00 Build 0)  -->
<svg version="1.1" id="Layer_1" xmlns="http://www.w3.org/2000/svg" xmlns:xlink="http://www.w3.org/1999/xlink" x="0px" y="0px"
	 viewBox="0 0 500 112.3" style="enable-background:new 0 0 500 112.3;" xml:space="preserve">
<style type="text/css">
	.st0{enable-background:new    ;}
</style>
<g>
	<path d="M6.1,40.9v-0.2C6.1,19.5,22.2,2,45.2,2c14.1,0,22.6,4.7,29.5,11.6L64.2,25.6c-5.8-5.2-11.7-8.4-19.1-8.4
		c-12.7,0-21.8,10.5-21.8,23.3v0.2c0,12.9,8.9,23.5,21.8,23.5c8.5,0,13.8-3.4,19.7-8.7l10.5,10.6C67.5,74.4,59,79.5,44.6,79.5
		C22.5,79.5,6.1,62.5,6.1,40.9z"/>
	<path d="M101.6,2.8h15.2l32.1,75.4h-17.2l-6.9-16.8H93.1l-6.9,16.8H69.5L101.6,2.8z M118.9,46.8L109,22.6L99,46.8H118.9z"/>
	<path d="M149.5,3.3h34.2c9.5,0,16.9,2.6,21.9,7.6C209.9,15,212,20.9,212,28v0.2c0,12.1-6.6,19.7-16.1,23.2l18.3,26.8h-19.2
		L179,54.3H166v23.9h-16.5V3.3z M182.7,39.7c8,0,12.7-4.3,12.7-10.6v-0.2c0-7.1-4.9-10.7-12.9-10.7H166v21.5H182.7z"/>
	<path d="M215,3.3h15.2l35.1,46.1V3.3h16.3v74.9h-14l-36.3-47.7v47.7H215V3.3z"/>
	<path d="M286.4,3.3h56.5v14.6h-40.1v15.2h30v14.6h-30v15.7h40.7V78h-57.1L286.4,3.3L286.4,3.3z"/>
	<path d="M339.1,40.9v-0.2c0-21.3,16.6-38.8,39.2-38.8c13.4,0,21.6,3.6,29.4,10.3l-10.4,12.6c-5.8-4.8-10.9-7.6-19.6-7.6
		c-12,0-21.5,10.6-21.5,23.3v0.2c0,13.7,9.4,23.7,22.7,23.7c6,0,11.4-1.5,15.5-4.5V49.3h-16.5V35.1h32.6v32.6
		c-7.8,6.6-18.3,11.9-32,11.9C355.2,79.5,339.1,63.1,339.1,40.9z"/>
	<path d="M415.1,3.3h16.5v74.9h-16.5V3.3z"/>
	<path d="M437.3,3.3h56.5v14.6h-40.1v15.2h30v14.6h-30v15.7h40.7V78h-57.1V3.3z"/>
</g>
<g class="st0">
	<path d="M57.4,88.6h1.4l7.9,11.7l7.9-11.7h1.4v19.7h-1.5V91.2l-7.8,11.3h-0.1l-7.8-11.3v17.1h-1.4V88.6z"/>
	<path d="M81.4,100.2V88.6h1.5V100c0,4.7,2.5,7.3,6.7,7.3c4,0,6.5-2.4,6.5-7.2V88.6h1.4v11.3c0,5.7-3.3,8.6-8.1,8.6
		C84.8,108.7,81.4,105.7,81.4,100.2z"/>
	<path d="M101.9,105.5l0.9-1.1c2.2,2,4.1,3,7.1,3s5-1.6,5-3.9v-0.1c0-2.1-1.1-3.3-5.5-4.2c-4.8-0.9-6.6-2.6-6.6-5.5v-0.1
		c0-3,2.6-5.1,6.3-5.1c2.9,0,4.8,0.8,6.8,2.4l-0.9,1.2c-1.9-1.6-3.7-2.3-5.8-2.3c-2.9,0-4.8,1.6-4.8,3.7v0.1c0,2.1,1.1,3.4,5.8,4.3
		c4.5,0.9,6.5,2.6,6.5,5.5v0.1c0,3.2-2.7,5.4-6.5,5.4C106.6,108.6,104.2,107.6,101.9,105.5z"/>
	<path d="M121.1,88.6h14V90h-12.5v7.7h11.3V99h-11.3v7.9h12.7v1.3h-14.2V88.6z"/>
	<path d="M139.6,100.2V88.6h1.5V100c0,4.7,2.5,7.3,6.7,7.3c4,0,6.5-2.4,6.5-7.2V88.6h1.5v11.3c0,5.7-3.3,8.6-8.1,8.6
		C143,108.7,139.6,105.7,139.6,100.2z"/>
	<path d="M161.3,88.6h1.4l7.9,11.6l7.9-11.6h1.4v19.7h-1.5V91.2l-7.8,11.3h-0.1l-7.8-11.3v17.1h-1.4L161.3,88.6L161.3,88.6z"/>
	<path d="M184.4,105.5l0.9-1.1c2.2,2,4.1,3,7.1,3c3,0,5-1.6,5-3.9v-0.1c0-2.1-1.1-3.3-5.5-4.2c-4.8-0.9-6.6-2.6-6.6-5.5v-0.1
		c0-3,2.6-5.1,6.3-5.1c2.9,0,4.8,0.8,6.8,2.4l-0.9,1.2c-1.9-1.6-3.7-2.3-5.8-2.3c-2.9,0-4.8,1.6-4.8,3.7v0.1c0,2.1,1.1,3.4,5.8,4.3
		c4.5,0.9,6.5,2.6,6.5,5.5v0.1c0,3.2-2.7,5.4-6.5,5.4C189.3,108.6,186.9,107.6,184.4,105.5z"/>
	<path d="M211.3,98.5L211.3,98.5c0-5.5,4-10.2,9.9-10.2s9.9,4.8,9.9,10.1v0.1c0,5.4-4,10.2-9.9,10.2S211.3,103.9,211.3,98.5z
		 M229.6,98.5L229.6,98.5c0-4.9-3.5-8.9-8.4-8.9c-4.9,0-8.3,4-8.3,8.8v0.1c0,4.8,3.5,8.9,8.4,8.9S229.6,103.4,229.6,98.5z"/>
	<path d="M236.1,88.6H250V90h-12.4v8.1h11.1v1.3h-11.1v8.9h-1.5V88.6L236.1,88.6z"/>
	<path d="M263,88.6h7.2c4.4,0,7.3,2.3,7.3,6v0.1c0,4.1-3.6,6.2-7.7,6.2h-5.3v7.3H263V88.6L263,88.6z M269.8,99.6
		c3.7,0,6.2-1.9,6.2-4.8v-0.1c0-3.1-2.4-4.8-6-4.8h-5.5v9.7C264.5,99.6,269.8,99.6,269.8,99.6z"/>
	<path d="M281.9,88.6h1.5v19.7h-1.5V88.6z"/>
	<path d="M294.9,90h-6.9v-1.4h15.2V90h-6.9v18.3h-1.5V90L294.9,90z"/>
	<path d="M313.1,90h-6.9v-1.4h15.2V90h-6.9v18.3h-1.5L313.1,90L313.1,90z"/>
	<path d="M324.2,105.5l0.9-1.1c2.2,2,4.1,3,7.1,3c3,0,5-1.6,5-3.9v-0.1c0-2.1-1.1-3.3-5.5-4.2c-4.8-0.9-6.6-2.6-6.6-5.5v-0.1
		c0-3,2.6-5.1,6.3-5.1c2.9,0,4.8,0.8,6.8,2.4l-0.9,1.2c-1.9-1.6-3.7-2.3-5.8-2.3c-2.9,0-4.8,1.6-4.8,3.7v0.1c0,2.1,1.1,3.4,5.8,4.3
		c4.5,0.9,6.5,2.6,6.5,5.5v0.1c0,3.2-2.7,5.4-6.5,5.4C329,108.6,326.6,107.6,324.2,105.5z"/>
	<path d="M343.5,88.6h8.1c2.3,0,4.1,0.6,5.1,1.7c0.8,0.8,1.2,1.9,1.2,3.1v0.1c0,2.6-1.7,4.1-3.4,4.7c2.3,0.6,4.4,1.9,4.4,4.7v0.1
		c0,3.3-2.8,5.4-7.1,5.4h-8.6L343.5,88.6L343.5,88.6z M351.4,97.8c3,0,5.1-1.4,5.1-4.1v-0.1c0-2.2-1.8-3.7-4.9-3.7H345v7.7
		L351.4,97.8L351.4,97.8z M352,106.9c3.4,0,5.5-1.6,5.5-4.1v-0.1c0-2.4-2.1-3.8-6-3.8h-6.7v7.9L352,106.9L352,106.9z"/>
	<path d="M363.5,100.2V88.6h1.5V100c0,4.7,2.5,7.3,6.7,7.3c4,0,6.5-2.4,6.5-7.2V88.6h1.5v11.3c0,5.7-3.3,8.6-8.1,8.6
		C366.8,108.7,363.5,105.7,363.5,100.2z"/>
	<path d="M385.2,88.6h8.3c2.4,0,4.4,0.8,5.5,1.9c0.9,0.9,1.5,2.3,1.5,3.7v0.1c0,3.3-2.4,5.1-5.8,5.6l6.5,8.4h-1.9l-6.2-8.2h-6.4v8.2
		h-1.5V88.6z M393.3,98.8c3.3,0,5.8-1.6,5.8-4.5v-0.1c0-2.6-2.1-4.3-5.7-4.3h-6.7v8.9H393.3z"/>
	<path d="M404.6,98.5L404.6,98.5c0-5.4,3.8-10.2,9.7-10.2c3.2,0,5.2,0.9,7.2,2.6l-0.9,1.1c-1.6-1.3-3.4-2.3-6.3-2.3
		c-4.8,0-8.1,4.1-8.1,8.8v0.1c0,5.1,3.2,8.9,8.4,8.9c2.5,0,4.8-1,6.2-2.3v-5.7h-6.5v-1.3h7.9v7.6c-1.8,1.6-4.5,3-7.7,3
		C408.3,108.7,404.6,104.1,404.6,98.5z"/>
	<path d="M427.5,88.6h1.5v9.1h12.6v-9.1h1.5v19.7h-1.5v-9.3H429v9.2h-1.5V88.6z"/>
</g>
</svg>
