<?xml version="1.0" encoding="utf-8"?>
<!-- Generator: Adobe Illustrator 21.0.0, SVG Export Plug-In . SVG Version: 6.00 Build 0)  -->
<svg version="1.1" id="Layer_1" xmlns="http://www.w3.org/2000/svg" xmlns:xlink="http://www.w3.org/1999/xlink" x="0px" y="0px"
	 viewBox="0 0 500 112.3" style="enable-background:new 0 0 500 112.3;" xml:space="preserve">
<g>
	<g>
		<path d="M59.9,68.7c-2.1,1.6-4.3,2.9-6.6,4.1c-2.4,1.1-4.9,2-7.6,2.6c-2.7,0.6-5.7,0.9-9,0.9c-5.3,0-10.2-1-14.7-3
			c-4.5-2-8.4-4.7-11.6-8.1c-3.3-3.4-5.8-7.4-7.6-12.1C0.9,48.6,0,43.6,0,38.4v-0.2C0,33,0.9,28,2.8,23.4c1.9-4.6,4.4-8.7,7.7-12.2
			C13.8,7.7,17.6,5,22.1,3c4.5-2,9.4-3,14.8-3c3.3,0,6.3,0.3,9,0.8c2.7,0.6,5.1,1.4,7.4,2.4c2.3,1.1,4.4,2.3,6.4,3.7
			c2,1.4,4,3,5.9,4.8l-3.9,4c-1.6-1.5-3.3-3-5.1-4.3C54.9,10.2,53,9,51,8.1c-2-0.9-4.2-1.7-6.5-2.3C42.1,5.2,39.5,5,36.8,5
			c-4.4,0-8.5,0.8-12.3,2.5c-3.8,1.7-7.1,4-9.9,7c-2.8,3-5,6.5-6.5,10.5c-1.6,4-2.4,8.3-2.4,13v0.2c0,4.6,0.8,9,2.4,13
			c1.6,4,3.8,7.6,6.6,10.5c2.8,3,6.1,5.3,9.9,7.1c3.8,1.7,7.9,2.6,12.3,2.6c5.3,0,10-1,13.9-3c3.9-2,7.8-4.8,11.5-8.5l3.7,3.6
			C64,65.4,62,67.1,59.9,68.7z"/>
		<path d="M134.3,75.1l-9.4-20.7H81.4L72,75.1h-5.7l34.4-74.3h5.3l34.4,74.3H134.3z M103.2,6.7L83.7,49.4h38.9L103.2,6.7z"/>
		<path d="M200.6,75.1l-23.5-30.6H153v30.6h-5.5V1.3h31c4,0,7.6,0.5,10.9,1.5c3.2,1,6,2.5,8.3,4.3c2.3,1.9,4.1,4.1,5.3,6.6
			c1.3,2.6,1.9,5.4,1.9,8.5v0.2c0,3.1-0.5,5.9-1.6,8.3c-1.1,2.4-2.6,4.5-4.5,6.3c-1.9,1.8-4.2,3.2-6.9,4.3c-2.6,1.1-5.5,1.8-8.6,2.3
			l24.4,31.5H200.6z M199.3,22.4c0-5-1.8-9-5.5-11.8c-3.7-2.9-8.9-4.3-15.7-4.3H153v33.3h24.9c3.1,0,6-0.4,8.6-1.2
			c2.6-0.8,4.9-1.9,6.8-3.3c1.9-1.4,3.4-3.2,4.5-5.3c1.1-2.1,1.6-4.5,1.6-7.1V22.4z"/>
		<path d="M272.5,75.1l-52-65.6v65.6h-5.3V1.3h5.2l50.9,64.2V1.3h5.3v73.8H272.5z"/>
		<path d="M290.1,75.1V1.3h52.5v5h-47v29.2h42.3v5h-42.3v29.7h47.5v5H290.1z"/>
		<path d="M402.6,73c-5,2.2-10.5,3.3-16.5,3.3c-5.8,0-11.1-1-15.7-3c-4.6-2-8.5-4.7-11.6-8.2c-3.2-3.4-5.6-7.5-7.3-12.1
			c-1.7-4.6-2.5-9.5-2.5-14.7v-0.2c0-5,0.9-9.8,2.6-14.4c1.7-4.6,4.2-8.7,7.4-12.2c3.2-3.5,7-6.3,11.5-8.4C375,1.1,380,0,385.5,0
			c3,0,5.8,0.2,8.3,0.6c2.5,0.4,4.8,1.1,7,1.9s4.2,1.9,6.1,3.1c1.9,1.2,3.8,2.6,5.6,4.1l-3.6,4.1c-2.9-2.5-6.2-4.6-9.9-6.3
			c-3.7-1.7-8.3-2.5-13.9-2.5c-4.5,0-8.6,0.9-12.3,2.6s-6.9,4.1-9.6,7.2c-2.7,3-4.8,6.5-6.3,10.5c-1.5,4-2.2,8.2-2.2,12.6v0.2
			c0,4.8,0.7,9.2,2.2,13.3c1.4,4.1,3.5,7.6,6.3,10.5c2.7,2.9,6.1,5.3,10,6.9c3.9,1.7,8.3,2.5,13.2,2.5c2.3,0,4.6-0.2,6.9-0.7
			c2.2-0.5,4.4-1.1,6.4-1.8c2-0.8,3.9-1.7,5.6-2.7c1.8-1,3.3-2.1,4.6-3.2V41.9h-24.7v-5h29.9v28.4C411.8,68.2,407.6,70.8,402.6,73z"
			/>
		<path d="M427.3,75.1V1.3h5.5v73.8H427.3z"/>
		<path d="M447,75.1V1.3h52.5v5h-47v29.2h42.3v5h-42.3v29.7H500v5H447z"/>
	</g>
	<g>
		<path d="M23.2,111.9V91.8l-9.7,13.3h-0.1L3.6,91.8v20.1H1.9V88.8h1.7l9.9,13.7l9.9-13.7h1.7v23.1H23.2z"/>
		<path d="M52.2,106.4c-0.5,1.3-1.2,2.3-2.1,3.2c-0.9,0.9-2,1.5-3.2,1.9c-1.2,0.4-2.6,0.7-4.1,0.7c-1.5,0-2.8-0.2-4.1-0.6
			c-1.2-0.4-2.3-1.1-3.2-1.9c-0.9-0.8-1.6-1.9-2.1-3.1c-0.5-1.2-0.7-2.7-0.7-4.3V88.8h1.8v13.3c0,2.7,0.7,4.9,2.2,6.4
			c1.5,1.5,3.5,2.2,6.1,2.2c1.2,0,2.4-0.2,3.4-0.5c1-0.4,1.9-0.9,2.6-1.6c0.7-0.7,1.3-1.6,1.7-2.6c0.4-1.1,0.6-2.3,0.6-3.7V88.8h1.8
			v13.3C52.9,103.7,52.7,105.2,52.2,106.4z"/>
		<path d="M76.4,108.4c-0.4,0.8-1,1.4-1.7,2c-0.7,0.6-1.6,1-2.6,1.3c-1,0.3-2.1,0.5-3.3,0.5c-2,0-3.7-0.3-5.3-0.9
			c-1.6-0.6-3.1-1.5-4.6-2.8l1.2-1.3c0.7,0.6,1.4,1.1,2,1.5c0.7,0.4,1.4,0.8,2.1,1.1c0.7,0.3,1.4,0.5,2.2,0.6
			c0.8,0.1,1.6,0.2,2.5,0.2s1.8-0.1,2.5-0.3c0.8-0.2,1.4-0.6,2-1c0.5-0.4,1-0.9,1.3-1.5c0.3-0.6,0.5-1.2,0.5-1.8V106
			c0-0.6-0.1-1.2-0.3-1.6c-0.2-0.5-0.6-0.9-1.1-1.3c-0.5-0.4-1.2-0.8-2.1-1.1c-0.9-0.3-2-0.6-3.4-0.9c-1.5-0.3-2.7-0.6-3.8-1
			c-1.1-0.4-1.9-0.8-2.6-1.4c-0.7-0.5-1.2-1.1-1.5-1.8c-0.3-0.7-0.5-1.5-0.5-2.3v-0.1c0-0.9,0.2-1.7,0.6-2.4
			c0.4-0.7,0.9-1.4,1.7-1.9c0.7-0.5,1.5-1,2.5-1.3c1-0.3,2-0.5,3.2-0.5c1.8,0,3.3,0.2,4.6,0.7c1.3,0.5,2.6,1.2,3.8,2.1l-1.2,1.4
			c-1.2-0.9-2.4-1.6-3.5-2c-1.2-0.4-2.5-0.6-3.8-0.6c-0.9,0-1.7,0.1-2.5,0.3c-0.7,0.2-1.4,0.5-1.9,0.9c-0.5,0.4-0.9,0.9-1.2,1.4
			c-0.3,0.5-0.4,1.1-0.4,1.7v0.1c0,0.6,0.1,1.2,0.3,1.7c0.2,0.5,0.6,0.9,1.1,1.4c0.5,0.4,1.3,0.8,2.2,1.1c0.9,0.3,2.1,0.6,3.6,0.9
			c2.9,0.6,4.9,1.3,6.2,2.3c1.3,1,1.9,2.3,1.9,4v0.1C77,106.8,76.8,107.7,76.4,108.4z"/>
		<path d="M83.8,111.9V88.8h17.5v1.6H85.6v9.1h14.1v1.6H85.6v9.3h15.9v1.6H83.8z"/>
		<path d="M127.1,106.4c-0.5,1.3-1.2,2.3-2.1,3.2c-0.9,0.9-2,1.5-3.2,1.9c-1.2,0.4-2.6,0.7-4.1,0.7c-1.5,0-2.8-0.2-4.1-0.6
			c-1.2-0.4-2.3-1.1-3.2-1.9c-0.9-0.8-1.6-1.9-2.1-3.1c-0.5-1.2-0.7-2.7-0.7-4.3V88.8h1.8v13.3c0,2.7,0.7,4.9,2.2,6.4
			c1.5,1.5,3.5,2.2,6.1,2.2c1.2,0,2.4-0.2,3.4-0.5c1-0.4,1.9-0.9,2.6-1.6c0.7-0.7,1.3-1.6,1.7-2.6s0.6-2.3,0.6-3.7V88.8h1.8v13.3
			C127.8,103.7,127.6,105.2,127.1,106.4z"/>
		<path d="M156.9,111.9V91.8l-9.7,13.3H147l-9.7-13.3v20.1h-1.8V88.8h1.7l9.9,13.7l9.9-13.7h1.7v23.1H156.9z"/>
		<path d="M182.6,108.4c-0.4,0.8-1,1.4-1.7,2c-0.7,0.6-1.6,1-2.6,1.3c-1,0.3-2.1,0.5-3.3,0.5c-2,0-3.7-0.3-5.3-0.9
			c-1.6-0.6-3.1-1.5-4.6-2.8l1.2-1.3c0.7,0.6,1.4,1.1,2,1.5c0.7,0.4,1.4,0.8,2.1,1.1c0.7,0.3,1.4,0.5,2.2,0.6
			c0.8,0.1,1.6,0.2,2.5,0.2s1.8-0.1,2.5-0.3c0.8-0.2,1.4-0.6,2-1c0.5-0.4,1-0.9,1.3-1.5c0.3-0.6,0.5-1.2,0.5-1.8V106
			c0-0.6-0.1-1.2-0.3-1.6c-0.2-0.5-0.6-0.9-1.1-1.3c-0.5-0.4-1.2-0.8-2.1-1.1c-0.9-0.3-2-0.6-3.4-0.9c-1.5-0.3-2.7-0.6-3.8-1
			c-1.1-0.4-1.9-0.8-2.6-1.4c-0.7-0.5-1.2-1.1-1.5-1.8c-0.3-0.7-0.5-1.5-0.5-2.3v-0.1c0-0.9,0.2-1.7,0.6-2.4
			c0.4-0.7,0.9-1.4,1.7-1.9c0.7-0.5,1.5-1,2.5-1.3c1-0.3,2-0.5,3.2-0.5c1.8,0,3.3,0.2,4.6,0.7c1.3,0.5,2.6,1.2,3.8,2.1l-1.2,1.4
			c-1.2-0.9-2.4-1.6-3.5-2c-1.2-0.4-2.5-0.6-3.8-0.6c-0.9,0-1.7,0.1-2.5,0.3c-0.7,0.2-1.4,0.5-1.9,0.9c-0.5,0.4-0.9,0.9-1.2,1.4
			c-0.3,0.5-0.4,1.1-0.4,1.7v0.1c0,0.6,0.1,1.2,0.3,1.7c0.2,0.5,0.6,0.9,1.1,1.4c0.5,0.4,1.3,0.8,2.2,1.1c0.9,0.3,2.1,0.6,3.6,0.9
			c2.9,0.6,4.9,1.3,6.2,2.3c1.3,1,1.9,2.3,1.9,4v0.1C183.2,106.8,183,107.7,182.6,108.4z"/>
		<path d="M224,104.8c-0.6,1.4-1.4,2.7-2.5,3.8c-1.1,1.1-2.4,2-3.9,2.6c-1.5,0.6-3.2,1-5.1,1c-1.9,0-3.6-0.3-5.1-1
			c-1.5-0.6-2.8-1.5-3.9-2.6c-1.1-1.1-1.9-2.3-2.5-3.8c-0.6-1.4-0.9-2.9-0.9-4.5v-0.1c0-1.6,0.3-3.1,0.9-4.5
			c0.6-1.4,1.4-2.7,2.5-3.8c1.1-1.1,2.4-2,3.9-2.6c1.5-0.6,3.2-1,5.1-1c1.9,0,3.5,0.3,5.1,1c1.5,0.6,2.8,1.5,3.9,2.6
			c1.1,1.1,1.9,2.3,2.5,3.8c0.6,1.4,0.9,2.9,0.9,4.5c0,0,0,0,0,0.1C224.9,101.9,224.6,103.4,224,104.8z M223,100.3
			c0-1.4-0.3-2.8-0.8-4c-0.5-1.3-1.3-2.4-2.2-3.3c-0.9-0.9-2-1.7-3.3-2.2s-2.7-0.8-4.2-0.8c-1.5,0-2.9,0.3-4.2,0.8
			c-1.3,0.5-2.4,1.3-3.3,2.2c-0.9,0.9-1.6,2-2.2,3.3c-0.5,1.3-0.8,2.6-0.8,4v0.1c0,1.4,0.3,2.8,0.8,4c0.5,1.3,1.3,2.4,2.2,3.3
			c0.9,0.9,2,1.7,3.3,2.2c1.3,0.6,2.7,0.8,4.2,0.8s2.9-0.3,4.2-0.8c1.3-0.5,2.4-1.3,3.3-2.2c0.9-0.9,1.6-2,2.2-3.3
			C222.7,103.1,223,101.8,223,100.3L223,100.3z"/>
		<path d="M233.6,90.3v9.5h13.9v1.6h-13.9v10.5h-1.8V88.8h17.3v1.6H233.6z"/>
		<path d="M284.2,99.1c-0.5,0.9-1.2,1.7-2.1,2.3c-0.9,0.6-1.9,1.1-3.1,1.4c-1.2,0.3-2.4,0.5-3.7,0.5h-6.6v8.6h-1.8V88.8h8.9
			c1.4,0,2.6,0.2,3.7,0.5c1.1,0.3,2.1,0.8,2.9,1.4c0.8,0.6,1.4,1.3,1.9,2.2c0.4,0.9,0.7,1.9,0.7,3v0.1
			C284.9,97.1,284.7,98.2,284.2,99.1z M283.1,95.9c0-0.9-0.2-1.7-0.5-2.4c-0.4-0.7-0.9-1.3-1.5-1.7c-0.7-0.5-1.4-0.8-2.4-1.1
			c-0.9-0.2-1.9-0.4-3-0.4h-7v11.4h6.8c1.1,0,2.2-0.1,3.1-0.4c0.9-0.3,1.7-0.6,2.4-1.1c0.7-0.5,1.2-1.1,1.6-1.8
			C282.9,97.6,283.1,96.8,283.1,95.9L283.1,95.9z"/>
		<path d="M291.3,111.9V88.8h1.8v23.1H291.3z"/>
		<path d="M310,90.3v21.5h-1.8V90.3h-8.6v-1.6h19v1.6H310z"/>
		<path d="M333.5,90.3v21.5h-1.8V90.3h-8.6v-1.6h19v1.6H333.5z"/>
		<path d="M363.8,108.4c-0.4,0.8-1,1.4-1.7,2c-0.7,0.6-1.6,1-2.6,1.3c-1,0.3-2.1,0.5-3.3,0.5c-2,0-3.7-0.3-5.3-0.9
			c-1.6-0.6-3.1-1.5-4.6-2.8l1.2-1.3c0.7,0.6,1.4,1.1,2,1.5c0.7,0.4,1.4,0.8,2.1,1.1c0.7,0.3,1.4,0.5,2.2,0.6
			c0.8,0.1,1.6,0.2,2.5,0.2c0.9,0,1.8-0.1,2.5-0.3c0.8-0.2,1.4-0.6,2-1c0.5-0.4,1-0.9,1.3-1.5c0.3-0.6,0.5-1.2,0.5-1.8V106
			c0-0.6-0.1-1.2-0.3-1.6c-0.2-0.5-0.6-0.9-1.1-1.3c-0.5-0.4-1.2-0.8-2.1-1.1c-0.9-0.3-2-0.6-3.4-0.9c-1.5-0.3-2.7-0.6-3.8-1
			c-1.1-0.4-1.9-0.8-2.6-1.4c-0.7-0.5-1.2-1.1-1.5-1.8c-0.3-0.7-0.5-1.5-0.5-2.3v-0.1c0-0.9,0.2-1.7,0.6-2.4
			c0.4-0.7,0.9-1.4,1.7-1.9c0.7-0.5,1.5-1,2.5-1.3c1-0.3,2-0.5,3.2-0.5c1.8,0,3.3,0.2,4.6,0.7c1.3,0.5,2.6,1.2,3.8,2.1l-1.2,1.4
			c-1.2-0.9-2.4-1.6-3.5-2c-1.2-0.4-2.5-0.6-3.8-0.6c-0.9,0-1.7,0.1-2.5,0.3c-0.7,0.2-1.4,0.5-1.9,0.9c-0.5,0.4-0.9,0.9-1.2,1.4
			c-0.3,0.5-0.4,1.1-0.4,1.7v0.1c0,0.6,0.1,1.2,0.3,1.7c0.2,0.5,0.6,0.9,1.1,1.4c0.5,0.4,1.3,0.8,2.2,1.1c0.9,0.3,2.1,0.6,3.6,0.9
			c2.9,0.6,4.9,1.3,6.2,2.3c1.3,1,1.9,2.3,1.9,4v0.1C364.4,106.8,364.2,107.7,363.8,108.4z"/>
		<path d="M389.9,108.2c-0.4,0.8-1,1.4-1.8,2c-0.8,0.5-1.7,1-2.8,1.3c-1.1,0.3-2.3,0.4-3.6,0.4h-10.7V88.8h10.1
			c1.2,0,2.3,0.1,3.3,0.4c1,0.3,1.8,0.6,2.5,1.1c0.7,0.5,1.2,1.1,1.6,1.8c0.4,0.7,0.6,1.5,0.6,2.3v0.1c0,0.8-0.1,1.5-0.4,2.1
			c-0.2,0.6-0.6,1.1-1,1.6c-0.4,0.4-0.8,0.8-1.3,1.1c-0.5,0.3-1,0.5-1.5,0.7c0.7,0.2,1.4,0.4,2.1,0.7c0.7,0.3,1.3,0.7,1.8,1.1
			c0.5,0.5,0.9,1,1.2,1.6c0.3,0.6,0.5,1.3,0.5,2.1v0.1C390.6,106.5,390.4,107.4,389.9,108.2z M387.4,94.6c0-1.3-0.5-2.3-1.6-3.1
			c-1.1-0.8-2.6-1.2-4.6-1.2h-8.3v9.1h8.1c0.9,0,1.8-0.1,2.5-0.3c0.8-0.2,1.4-0.5,2-0.9s1-0.9,1.3-1.5
			C387.2,96.1,387.4,95.4,387.4,94.6L387.4,94.6z M388.8,105.5c0-1.4-0.6-2.5-1.9-3.3c-1.3-0.8-3.1-1.2-5.6-1.2h-8.3v9.3h8.9
			c2.1,0,3.8-0.4,5-1.3C388.1,108.2,388.8,107,388.8,105.5L388.8,105.5z"/>
		<path d="M416.3,106.4c-0.5,1.3-1.2,2.3-2.1,3.2c-0.9,0.9-2,1.5-3.2,1.9c-1.2,0.4-2.6,0.7-4.1,0.7c-1.5,0-2.8-0.2-4.1-0.6
			c-1.2-0.4-2.3-1.1-3.2-1.9c-0.9-0.8-1.6-1.9-2.1-3.1c-0.5-1.2-0.7-2.7-0.7-4.3V88.8h1.8v13.3c0,2.7,0.7,4.9,2.2,6.4
			c1.5,1.5,3.5,2.2,6.1,2.2c1.2,0,2.4-0.2,3.4-0.5c1-0.4,1.9-0.9,2.6-1.6c0.7-0.7,1.3-1.6,1.7-2.6s0.6-2.3,0.6-3.7V88.8h1.8v13.3
			C417,103.7,416.8,105.2,416.3,106.4z"/>
		<path d="M442.4,111.9l-7.8-9.6h-8.1v9.6h-1.8V88.8H435c1.3,0,2.5,0.2,3.6,0.5c1.1,0.3,2,0.8,2.8,1.4s1.4,1.3,1.8,2.1
			c0.4,0.8,0.6,1.7,0.6,2.7v0.1c0,1-0.2,1.8-0.5,2.6c-0.4,0.8-0.9,1.4-1.5,2c-0.6,0.5-1.4,1-2.3,1.3c-0.9,0.3-1.8,0.6-2.9,0.7
			l8.1,9.9H442.4z M441.9,95.4c0-1.6-0.6-2.8-1.8-3.7c-1.2-0.9-3-1.4-5.2-1.4h-8.4v10.4h8.3c1,0,2-0.1,2.9-0.4
			c0.9-0.2,1.6-0.6,2.3-1c0.6-0.5,1.1-1,1.5-1.7C441.8,97,441.9,96.3,441.9,95.4L441.9,95.4z"/>
		<path d="M467.6,111.2c-1.7,0.7-3.5,1-5.5,1c-1.9,0-3.7-0.3-5.2-0.9c-1.5-0.6-2.8-1.5-3.9-2.6c-1.1-1.1-1.9-2.3-2.4-3.8
			c-0.6-1.4-0.8-3-0.8-4.6v-0.1c0-1.6,0.3-3.1,0.9-4.5c0.6-1.4,1.4-2.7,2.5-3.8c1.1-1.1,2.4-2,3.9-2.6c1.5-0.7,3.2-1,5-1
			c1,0,1.9,0.1,2.8,0.2c0.8,0.1,1.6,0.3,2.3,0.6c0.7,0.3,1.4,0.6,2,1c0.6,0.4,1.3,0.8,1.9,1.3l-1.2,1.3c-1-0.8-2.1-1.5-3.3-2
			c-1.2-0.5-2.8-0.8-4.6-0.8c-1.5,0-2.9,0.3-4.1,0.8s-2.3,1.3-3.2,2.2c-0.9,0.9-1.6,2-2.1,3.3c-0.5,1.3-0.7,2.6-0.7,4v0.1
			c0,1.5,0.2,2.9,0.7,4.1c0.5,1.3,1.2,2.4,2.1,3.3c0.9,0.9,2,1.6,3.3,2.2c1.3,0.5,2.8,0.8,4.4,0.8c0.8,0,1.5-0.1,2.3-0.2
			c0.7-0.1,1.5-0.3,2.1-0.6c0.7-0.2,1.3-0.5,1.9-0.8c0.6-0.3,1.1-0.7,1.5-1v-6.6h-8.2v-1.6h10v8.9
			C470.6,109.7,469.2,110.5,467.6,111.2z"/>
		<path d="M496.7,111.9V101h-15.8v10.8h-1.8V88.8h1.8v10.7h15.8V88.8h1.8v23.1H496.7z"/>
	</g>
</g>
</svg>
