<?xml version="1.0" encoding="utf-8"?>
<!-- Generator: Adobe Illustrator 16.0.4, SVG Export Plug-In . SVG Version: 6.00 Build 0)  -->
<!DOCTYPE svg PUBLIC "-//W3C//DTD SVG 1.1//EN" "http://www.w3.org/Graphics/SVG/1.1/DTD/svg11.dtd">
<svg version="1.1" xmlns="http://www.w3.org/2000/svg" xmlns:xlink="http://www.w3.org/1999/xlink" x="0px" y="0px" width="288px"
	 height="176.279px" viewBox="0 0 288 176.279" enable-background="new 0 0 288 176.279" xml:space="preserve">
<g id="Layer_1" display="none">
	<g display="inline">
		<path fill="#F98C0B" d="M21.11,46.631c5.32,2.661,12.241,1.021,17.343,4.082c5.101,3.06,10.768,8.019,10.768,8.019
			c1.372,1.199,1.576,1.493,0.454,0.651c-1.122-0.842-2.959,2.512-1.587,3.713c0,0,5.668,4.958,3.628,6.999
			c-3.061,5.101-12.441-0.371-12.441-0.371s-4.308-1.308-6.076-0.866c0,0-0.866,0.218-1.886-0.804
			c-11.222-3.06-20.403-9.181-28.564-18.362c-1.021-2.041-1.021-2.041-1.021-2.041C2.29,45.967,4.24,44.59,6.061,44.59
			c0,0,4.849,0,8.929,0C17.03,45.61,19.07,45.61,21.11,46.631z"/>
		<path fill="#F98C0B" d="M78.238,11.524c3.776,11.329,5.101,22.444,6.121,33.666c-6.121,0-14.282,3.062-18.362,0
			c-8.162-6.121-7.142-19.383-10.202-29.585c-1.02-3.061,1.02-5.101,3.06-7.141c0,1.02,0,2.041,1.021,2.041
			c3.061-1.021,4.082-2.041,7.141-2.041c3.061,0,2.04-4.081,4.081-5.102C76.198,1.322,77.217,8.464,78.238,11.524z"/>
		<path fill="#F98C0B" d="M122.186,14.506c3.187-3.983,8.039-6.088,9.182-2.04c4.705,16.678-14.283,33.665-14.283,33.665
			l-7.141,4.08c0,0-2.041-2.04-3.061-3.061c-1.021-1.021-2.041,0-2.041,1.021C103.822,34.91,114.024,24.708,122.186,14.506z"/>
		<path fill="#F98C0B" d="M169.389,44.667c3.354,4.694,6.277,9.445,2.805,12.027c-5.144,3.826-5.229,8.416-12.368,9.438
			c-3.062,0-9.046,4.312-10.065,5.333c-2.039,2.039-4.955,2.568-8.015,2.568c-4.08,1.021-3.419,1.237-7.5-0.803
			c-3.061-2.041-6.683-3.061-6.683-7.142c-2.04-12.242,13.262-18.363,22.443-24.484C156.126,37.524,164.287,37.524,169.389,44.667z"
			/>
		<path fill="#F98C0B" d="M156.341,121.822c4.696,3.653,10.779,9.028,10.779,9.028c1.366,1.208,2.024,1.964,1.463,1.685
			s-1.581,1.888-1.021,3.57l0,0c-7.142,2.041-13.264-2.041-20.402-5.101c-2.041-1.021-4.081,1.019-5.102,0
			c-6.121-5.103-14.282-7.142-18.363-14.283c-1.02-3.061,0-8.16,2.041-9.181C137.978,103.459,147.16,114.681,156.341,121.822z"/>
		<path fill="#F98C0B" d="M124.172,97.168c-3.292,16.466-7.301,17.721-7.301,17.721s-10.263,11.255-26.337,8.803
			c-10.285-1.567-21.424-3.06-28.565-10.202c-17.344-14.281-12.243-40.807,4.08-56.109c7.142-6.121,16.323-8.162,25.505-5.102
			c6.12,2.041,13.262,3.062,19.383,6.122c3.06,1.021,7.142,4.079,10.202,8.161C127.259,75.744,126.212,86.965,124.172,97.168z"/>
		<path fill="#F98C0B" d="M106.516,148.283c0.741,2.97,0,6.12,1.02,9.182c1.021,2.041,7.141,4.08,4.081,5.101
			c-3.06,3.061-6.121,5.102-9.181,9.183c-1.02,2.041-7.142,2.041-8.162,0c-9.181-11.224-8.162-26.523-4.081-38.767
			c0-1.02,2.041-6.121,6.121-4.081c3.061,2.041,7.142,3.062,8.162,6.121C105.495,139.103,105.495,144.203,106.516,148.283z"/>
		<path fill="#F98C0B" d="M62.246,141.437c-0.722,2.165-1.375,3.271-1.375,3.271c-0.927,1.567-1.02,4.186-0.204,5.813
			c0,0,0.558,1.118-0.462,3.158c-1.021,1.021-2.809,1.021-2.809,1.021c-1.822,0-4.766-0.335-6.542-0.746
			c0,0-10.033-2.314-10.033-7.416c-1.021-11.223,6.121-22.443,15.302-28.564c3.061-1.021,7.142,2.041,8.161,4.08
			C67.346,128.174,64.286,135.315,62.246,141.437z"/>
		<path fill="#F98C0B" d="M35.749,107.741c-7.741,1.891-13.662,9.441-19.944,4.87c-2.757-1.674-5.968-1.359-8.725-3.034
			c-1.763-1.447-2.53-2.669-4.52-3.123c-0.995-0.227-0.768-1.223-0.542-2.217C9.485,94.431,20.46,98.521,30.999,93.6
			c3.438-1.31,7.27-2.925,10.026-1.251c2.53,2.67,5.767-0.923,6.081,2.287c0.088,4.204-4.193,6.369-5.699,9.488
			C38.423,103.444,37.965,107.199,35.749,107.741z"/>
		<path fill="#FFFFFF" d="M63.87,93.107v9.008h-6.672V76.561c0,0,8.807,0,10.175,0c4.538,0,8.74,2.568,8.74,8.007
			c0,3.503-1.534,5.871-4.404,6.973c0.667,0.967,6.839,10.575,6.839,10.575h-7.972c0,0-4.638-7.84-5.371-9.008L63.87,93.107
			L63.87,93.107z M63.736,88.071h2.135c1.835,0,3.436-0.768,3.436-3.202c0-2.169-1.167-3.202-3.369-3.202h-2.201L63.736,88.071
			L63.736,88.071z"/>
		<path fill="#FFFFFF" d="M74.376,102.115l9.474-25.521l7.639-0.034l9.474,25.555h-7.205l-1.735-4.738h-8.84l-1.701,4.738H74.376z
			 M84.851,92.24h5.438l-2.702-7.807L84.851,92.24z"/>
		<path fill="#FFFFFF" d="M99.596,76.561c0,0,6.639,0,10.675,0c6.872,0,12.143,5.105,12.143,12.478
			c0,7.473-4.971,13.077-12.077,13.077c-4.002,0-10.741,0-10.741,0V76.561z M106.368,96.376h2.936c3.937,0,6.372-3.135,6.372-7.439
			c0-3.901-2.602-6.805-6.172-6.805h-3.136V96.376z"/>
		<path fill="#FFFFFF" d="M129.471,80.496l5.074,14.312l5.555-14.812l5.705,14.711l5.016-14.212h3.152l-7.988,21.783l-5.854-14.978
			l-5.675,14.978l-8.227-21.783L129.471,80.496L129.471,80.496z"/>
		<path fill="#FFFFFF" d="M163.309,79.996c5.465,0,9.909,4.37,9.909,10.74c0,5.972-4.383,10.843-9.758,10.843
			c-5.405,0-9.879-4.805-9.879-10.809C153.581,84.833,157.785,79.996,163.309,79.996z M156.613,90.837
			c0,4.17,2.973,7.573,6.785,7.573c3.845,0,6.787-3.136,6.787-7.706c0-4.204-2.674-7.673-6.847-7.673
			C159.316,83.031,156.613,86.534,156.613,90.837z"/>
		<path fill="#FFFFFF" d="M178.381,90.17v10.808h-2.973V80.496h2.912v2.902c1.143-2.302,2.731-3.27,4.744-3.27
			c0.631,0,1.352,0.166,2.013,0.399l-0.72,3.236c0,0-1.144-0.434-2.045-0.434C178.98,83.332,178.381,87.869,178.381,90.17z"/>
		<path fill="#FFFFFF" d="M190.333,100.979h-2.974V75.426h2.974v14.477l7.086-9.406h3.663l-7.747,9.974l8.228,10.509h-3.934
			l-7.296-9.641V100.979L190.333,100.979z"/>
		<path fill="#FFFFFF" d="M207.811,79.996c2.434,0,4.324,1.533,5.166,4.002l-2.432,1.202c-0.271-0.77-0.992-2.37-2.793-2.37
			c-1.411,0-2.493,1.101-2.493,2.567c0,1.803,1.382,2.569,2.853,3.304c0.662,0.333,1.08,0.566,1.803,0.935
			c2.223,1.134,3.663,3.102,3.663,5.671c0,3.969-2.911,6.271-6.155,6.271c-2.672,0-4.834-1.534-5.916-4.138l2.493-1.468
			c0.33,0.834,1.321,2.669,3.362,2.669c2.133,0,3.272-1.267,3.272-2.969c0-1.4-0.811-2.568-2.071-3.168
			c-1.17-0.568-2.312-1.167-2.942-1.502c-2.552-1.334-3.304-3.502-3.304-5.403C202.316,82.397,204.6,79.996,207.811,79.996z"/>
		<path fill="#FFFFFF" d="M222.139,100.979V75.426h2.973v7.773c1.353-2.002,3.214-3.037,5.646-3.037
			c3.185,0,6.155,2.669,6.155,6.172c0,4.937,0,9.674,0,14.645h-2.973c0,0,0-9.307,0-13.743c0-2.637-1.502-4.07-3.812-4.07
			c-3.543,0-5.016,3.002-5.016,6.372c0,4.104,0,11.441,0,11.441H222.139z"/>
		<path fill="#FFFFFF" d="M248.201,79.996c5.404,0,8.558,4.87,8.558,11.241h-14.563c0,3.869,2.283,7.473,6.186,7.473
			c2.434,0,4.626-1.967,5.406-4.169l2.49,1.434c-1.199,2.77-4.293,5.605-7.955,5.605c-5.586,0-9.067-5.071-9.067-10.809
			C239.254,85.066,242.736,79.996,248.201,79.996z M242.406,88.702h11.318c-0.27-3.002-2.072-5.938-5.556-5.938
			C244.988,82.765,242.706,85.7,242.406,88.702z"/>
		<path fill="#FFFFFF" d="M262.011,90.17v10.808h-2.973V80.496h2.913v2.902c1.141-2.302,2.732-3.27,4.742-3.27
			c0.633,0,1.354,0.166,2.014,0.399l-0.721,3.236c0,0-1.141-0.434-2.041-0.434C262.609,83.332,262.011,87.869,262.011,90.17z"/>
		<path fill="#FFFFFF" d="M277.716,79.996c5.404,0,8.558,4.87,8.558,11.241H271.71c0,3.869,2.282,7.473,6.187,7.473
			c2.433,0,4.625-1.967,5.404-4.169l2.493,1.434c-1.202,2.77-4.295,5.605-7.958,5.605c-5.585,0-9.066-5.071-9.066-10.809
			C268.77,85.066,272.251,79.996,277.716,79.996z M271.921,88.702h11.319c-0.27-3.002-2.072-5.938-5.555-5.938
			C274.503,82.765,272.221,85.7,271.921,88.702z"/>
	</g>
</g>
<g id="Layer_2">
	<path fill="#F78E1E" d="M21.209,46.654c5.305,2.653,12.208,1.018,17.295,4.07c5.086,3.051,10.739,7.997,10.739,7.997
		c1.367,1.196,1.571,1.489,0.452,0.65c-1.119-0.839-2.951,2.505-1.583,3.702c0,0,5.652,4.944,3.618,6.979
		c-3.052,5.087-12.407-0.37-12.407-0.37s-4.296-1.304-6.06-0.864c0,0-0.863,0.217-1.88-0.801
		c-11.191-3.051-20.348-9.155-28.486-18.311c-1.018-2.035-1.018-2.035-1.018-2.035c0.56-1.679,2.505-3.052,4.322-3.052
		c0,0,4.834,0,8.904,0C17.14,45.636,19.174,45.636,21.209,46.654z"/>
	<path fill="#F78E1E" d="M78.18,11.644c3.766,11.296,5.086,22.382,6.103,33.573c-6.103,0-14.243,3.053-18.312,0
		c-8.139-6.104-7.122-19.33-10.174-29.504c-1.017-3.052,1.017-5.086,3.052-7.122c0,1.018,0,2.036,1.018,2.036
		c3.052-1.018,4.07-2.036,7.122-2.036c3.052,0,2.034-4.069,4.07-5.086C76.144,1.47,77.162,8.592,78.18,11.644z"/>
	<path fill="#F78E1E" d="M122.007,14.618c3.177-3.972,8.016-6.072,9.155-2.034c4.692,16.632-14.243,33.572-14.243,33.572
		l-7.121,4.069c0,0-2.035-2.034-3.053-3.051s-2.035,0-2.035,1.018C103.694,34.965,113.867,24.791,122.007,14.618z"/>
	<path fill="#F78E1E" d="M169.08,44.696c3.344,4.682,6.26,9.419,2.796,11.995c-5.129,3.815-5.214,8.393-12.335,9.411
		c-3.052,0-9.02,4.301-10.037,5.318c-2.035,2.034-4.942,2.562-7.993,2.562c-4.069,1.018-3.41,1.235-7.479-0.8
		c-3.052-2.035-6.665-3.052-6.665-7.122c-2.035-12.208,13.226-18.312,22.381-24.417C155.854,37.573,163.992,37.573,169.08,44.696z"
		/>
	<path fill="#F78E1E" d="M156.067,121.638c4.684,3.643,10.751,9.003,10.751,9.003c1.361,1.205,2.019,1.96,1.458,1.681
		c-0.56-0.28-1.578,1.882-1.019,3.56l0,0c-7.12,2.036-13.225-2.035-20.346-5.085c-2.035-1.018-4.07,1.015-5.087,0
		c-6.103-5.088-14.243-7.123-18.312-14.244c-1.018-3.052,0-8.137,2.034-9.155C137.755,103.327,146.912,114.518,156.067,121.638z"/>
	<path fill="#F78E1E" d="M123.988,97.052c-3.284,16.42-7.282,17.673-7.282,17.673s-10.234,11.223-26.264,8.776
		c-10.257-1.562-21.366-3.05-28.487-10.173C44.66,99.085,49.747,72.635,66.024,57.374c7.122-6.104,16.278-8.14,25.435-5.087
		c6.103,2.035,13.227,3.053,19.329,6.105c3.053,1.016,7.123,4.068,10.174,8.138C127.066,75.687,126.022,86.877,123.988,97.052z"/>
	<path fill="#F78E1E" d="M106.379,148.027c0.739,2.961,0,6.104,1.018,9.157c1.018,2.035,7.121,4.068,4.068,5.086
		c-3.05,3.052-6.103,5.088-9.156,9.157c-1.017,2.035-7.122,2.035-8.138,0c-9.157-11.193-8.141-26.451-4.07-38.659
		c0-1.018,2.035-6.105,6.104-4.07c3.051,2.035,7.122,3.053,8.139,6.103C105.362,138.87,105.362,143.958,106.379,148.027z"/>
	<path fill="#F78E1E" d="M62.231,141.199c-0.72,2.157-1.371,3.26-1.371,3.26c-0.924,1.564-1.017,4.173-0.203,5.8
		c0,0,0.556,1.113-0.461,3.148c-1.017,1.018-2.8,1.018-2.8,1.018c-1.817,0-4.753-0.333-6.524-0.744c0,0-10.005-2.309-10.005-7.396
		c-1.018-11.19,6.104-22.381,15.26-28.483c3.053-1.019,7.122,2.034,8.139,4.067C67.318,127.974,64.266,135.094,62.231,141.199z"/>
	<path fill="#F78E1E" d="M35.807,107.597c-7.719,1.885-13.624,9.416-19.889,4.857c-2.75-1.671-5.952-1.356-8.702-3.027
		c-1.758-1.442-2.523-2.662-4.507-3.113c-0.993-0.226-0.766-1.22-0.541-2.211c7.447-9.78,18.392-5.701,28.901-10.608
		c3.428-1.307,7.25-2.918,9.999-1.247c2.524,2.662,5.751-0.921,6.065,2.278c0.087,4.193-4.182,6.354-5.683,9.464
		C38.475,103.311,38.018,107.057,35.807,107.597z"/>
	<path fill="#FFFFFF" d="M63.851,93.004v8.981h-6.654V76.501c0,0,8.782,0,10.146,0c4.525,0,8.716,2.562,8.716,7.985
		c0,3.493-1.53,5.854-4.391,6.952c0.666,0.966,6.819,10.547,6.819,10.547h-7.949c0,0-4.625-7.819-5.356-8.981H63.851z
		 M63.718,87.979h2.129c1.83,0,3.427-0.766,3.427-3.193c0-2.163-1.164-3.193-3.36-3.193h-2.195V87.979z"/>
	<path fill="#FFFFFF" d="M74.329,101.986l9.447-25.45l7.617-0.035l9.448,25.484h-7.185l-1.729-4.726H83.11l-1.696,4.726H74.329z
		 M84.773,92.137h5.424l-2.696-7.784L84.773,92.137z"/>
	<path fill="#FFFFFF" d="M99.479,76.501c0,0,6.622,0,10.647,0c6.853,0,12.108,5.091,12.108,12.441
		c0,7.454-4.958,13.043-12.043,13.043c-3.992,0-10.712,0-10.712,0V76.501z M106.231,96.263h2.928c3.926,0,6.354-3.128,6.354-7.419
		c0-3.892-2.594-6.787-6.155-6.787h-3.127V96.263z"/>
	<path fill="#FFFFFF" d="M129.271,80.426l5.06,14.273l5.541-14.771l5.689,14.671l5.001-14.173h3.145l-7.967,21.724l-5.838-14.937
		l-5.66,14.937l-8.204-21.724H129.271z"/>
	<path fill="#FFFFFF" d="M163.017,79.927c5.449,0,9.882,4.358,9.882,10.711c0,5.955-4.371,10.812-9.731,10.812
		c-5.392,0-9.852-4.792-9.852-10.779C153.315,84.751,157.508,79.927,163.017,79.927z M156.34,90.738c0,4.16,2.964,7.554,6.768,7.554
		c3.832,0,6.767-3.128,6.767-7.685c0-4.193-2.665-7.652-6.827-7.652C159.035,82.955,156.34,86.447,156.34,90.738z"/>
	<path fill="#FFFFFF" d="M178.047,90.073v10.779h-2.964V80.426h2.904v2.896c1.139-2.296,2.725-3.261,4.731-3.261
		c0.628,0,1.347,0.166,2.005,0.4l-0.717,3.226c0,0-1.139-0.432-2.037-0.432C178.646,83.254,178.047,87.78,178.047,90.073z"/>
	<path fill="#FFFFFF" d="M189.967,100.853H187V75.37h2.967v14.438l7.066-9.382h3.653l-7.727,9.946l8.205,10.481h-3.924l-7.274-9.614
		V100.853z"/>
	<path fill="#FFFFFF" d="M207.396,79.927c2.425,0,4.312,1.53,5.151,3.991l-2.426,1.199c-0.271-0.766-0.989-2.363-2.785-2.363
		c-1.407,0-2.485,1.097-2.485,2.562c0,1.795,1.377,2.562,2.845,3.292c0.659,0.333,1.077,0.566,1.796,0.933
		c2.217,1.13,3.653,3.093,3.653,5.654c0,3.959-2.903,6.255-6.139,6.255c-2.664,0-4.821-1.529-5.899-4.126l2.486-1.465
		c0.329,0.832,1.318,2.663,3.354,2.663c2.126,0,3.264-1.264,3.264-2.961c0-1.396-0.809-2.562-2.065-3.161
		c-1.168-0.566-2.306-1.163-2.935-1.496c-2.546-1.33-3.294-3.493-3.294-5.39C201.917,82.322,204.193,79.927,207.396,79.927z"/>
	<path fill="#FFFFFF" d="M221.685,100.853V75.37h2.964v7.751c1.349-1.997,3.204-3.028,5.63-3.028c3.175,0,6.138,2.662,6.138,6.154
		c0,4.924,0,9.648,0,14.605h-2.963c0,0,0-9.283,0-13.706c0-2.63-1.499-4.06-3.804-4.06c-3.533,0-5.001,2.993-5.001,6.354
		c0,4.094,0,11.412,0,11.412H221.685z"/>
	<path fill="#FFFFFF" d="M247.675,79.927c5.39,0,8.534,4.856,8.534,11.21h-14.523c0,3.859,2.276,7.451,6.168,7.451
		c2.427,0,4.613-1.962,5.391-4.156l2.485,1.428c-1.197,2.762-4.282,5.591-7.935,5.591c-5.569,0-9.043-5.057-9.043-10.779
		C238.752,84.984,242.226,79.927,247.675,79.927z M241.896,88.609h11.288c-0.27-2.993-2.067-5.92-5.54-5.92
		C244.471,82.689,242.194,85.616,241.896,88.609z"/>
	<path fill="#FFFFFF" d="M261.446,90.073v10.779h-2.964V80.426h2.905v2.896c1.137-2.296,2.725-3.261,4.729-3.261
		c0.63,0,1.35,0.166,2.008,0.4l-0.72,3.226c0,0-1.138-0.432-2.035-0.432C262.046,83.254,261.446,87.78,261.446,90.073z"/>
	<path fill="#FFFFFF" d="M277.108,79.927c5.391,0,8.534,4.856,8.534,11.21H271.12c0,3.859,2.275,7.451,6.168,7.451
		c2.426,0,4.611-1.962,5.391-4.156l2.485,1.428c-1.197,2.762-4.282,5.591-7.936,5.591c-5.569,0-9.043-5.057-9.043-10.779
		C268.186,84.984,271.659,79.927,277.108,79.927z M271.33,88.609h11.288c-0.269-2.993-2.066-5.92-5.54-5.92
		C273.905,82.689,271.629,85.616,271.33,88.609z"/>
	<g>
		<path fill="#FFFFFF" d="M196.116,114.717l3.542,13.273h-1.611l-0.995-3.8h-3.979l-0.956,3.8h-1.632l3.721-13.273H196.116z
			 M195.062,116.29l-1.671,6.627h3.322L195.062,116.29z"/>
		<path fill="#FFFFFF" d="M202.769,114.717v13.273h-1.453v-13.273H202.769z"/>
		<path fill="#FFFFFF" d="M206.828,114.717v13.273h-1.451v-13.273H206.828z"/>
		<path fill="#FFFFFF" d="M210.474,123.274v0.062c0,2.467,0.756,3.701,2.268,3.701c1.035,0,1.573-0.517,2.011-1.951l1.354,0.317
			c-0.497,1.911-1.633,2.867-3.423,2.867c-2.389,0-3.763-1.83-3.763-5.036c0-3.283,1.474-5.332,3.821-5.332
			c1.234,0,2.27,0.615,2.807,1.652c0.558,1.114,0.657,1.61,0.717,3.72H210.474z M212.583,119.136c-1.174,0-1.87,0.993-2.051,2.926
			h4.081C214.613,120.191,213.876,119.136,212.583,119.136z"/>
		<path fill="#FFFFFF" d="M225.305,117.902c-0.2-0.039-0.279-0.039-0.398-0.039c-0.617,0-0.916,0.338-1.035,1.232
			c0.518,0.718,0.757,1.372,0.757,2.209c0,1.93-1.395,3.344-3.305,3.344c-0.417,0-0.657-0.039-1.214-0.159
			c-0.597,0.198-0.815,0.418-0.815,0.896c0,0.656,0.397,0.914,1.532,0.954c0.279,0.021,0.637,0.021,1.055,0.04
			c1.175,0.062,1.573,0.119,2.129,0.259c1.074,0.258,1.613,1.015,1.613,2.249c0,1.812-1.512,2.867-4.16,2.867
			c-2.508,0-3.921-0.936-3.921-2.588c0-1.016,0.418-1.612,1.313-1.95c-0.696-0.459-0.915-0.855-0.915-1.514
			c0-0.855,0.398-1.431,1.254-1.81c-0.815-0.818-1.115-1.514-1.115-2.588c0-1.91,1.434-3.402,3.284-3.402
			c0.657,0,0.955,0.078,1.632,0.438c0.238-1.215,0.737-1.692,1.771-1.692c0.08,0,0.18,0,0.318,0c0.041,0,0.121,0,0.221,0V117.902z
			 M219.034,128.906c0,1.154,0.776,1.652,2.528,1.652c1.671,0,2.567-0.538,2.567-1.593c0-0.478-0.199-0.856-0.558-1.056
			c-0.318-0.179-0.775-0.259-1.691-0.277l-1.333-0.021l-0.677-0.019C219.274,127.931,219.034,128.328,219.034,128.906z
			 M221.323,119.136c-1.054,0-1.73,0.855-1.73,2.209c0,1.313,0.677,2.169,1.751,2.169c1.055,0,1.791-0.896,1.791-2.169
			c0-1.314-0.656-2.209-1.731-2.209H221.323z"/>
		<path fill="#FFFFFF" d="M228.192,114.717v4.975c0.458-1.214,1.233-1.79,2.449-1.79c0.795,0,1.512,0.277,1.95,0.775
			c0.258,0.277,0.437,0.638,0.517,0.994c0.14,0.538,0.159,0.956,0.159,2.23v6.089h-1.452v-6.089c0-0.856-0.021-1.194-0.101-1.594
			c-0.139-0.735-0.696-1.172-1.472-1.172c-1.334,0-2.051,1.312-2.051,3.74v5.114h-1.452v-13.273H228.192z"/>
		<path fill="#FFFFFF" d="M236.935,123.274v0.062c0,2.467,0.755,3.701,2.268,3.701c1.035,0,1.573-0.517,2.011-1.951l1.354,0.317
			c-0.497,1.911-1.632,2.867-3.424,2.867c-2.388,0-3.762-1.83-3.762-5.036c0-3.283,1.474-5.332,3.821-5.332
			c1.235,0,2.269,0.615,2.807,1.652c0.558,1.114,0.657,1.61,0.716,3.72H236.935z M239.043,119.136c-1.174,0-1.87,0.993-2.05,2.926
			h4.08C241.073,120.191,240.338,119.136,239.043,119.136z"/>
		<path fill="#FFFFFF" d="M246.072,118.179v1.532c0.558-1.293,1.294-1.81,2.527-1.81c0.855,0,1.611,0.317,2.05,0.855
			c0.239,0.277,0.397,0.637,0.478,1.033c0.079,0.459,0.119,0.856,0.119,1.952v6.248h-1.453v-6.049c0-1.077-0.02-1.255-0.1-1.692
			c-0.159-0.757-0.616-1.113-1.433-1.113c-0.577,0-1.034,0.179-1.373,0.597c-0.558,0.655-0.717,1.412-0.717,2.965v5.293h-1.452
			v-9.812H246.072z"/>
		<path fill="#FFFFFF" d="M254.074,118.179l2.011,7.344l2.168-7.344h1.394l-3.383,10.808c-0.299,0.976-0.478,1.372-0.836,1.81
			c-0.398,0.52-0.956,0.737-1.732,0.737c-0.337,0-0.517-0.021-0.955-0.101v-1.193c0.318,0.062,0.458,0.08,0.677,0.08
			c0.319,0,0.598-0.06,0.776-0.14c0.198-0.119,0.358-0.319,0.498-0.597c0.239-0.498,0.338-0.697,0.696-2.03l-2.767-9.374H254.074z"
			/>
		<path fill="#FFFFFF" d="M180.487,133.456c2.527,0,3.94,1.313,3.94,3.641c0,1.633-0.677,2.746-2.17,3.482l2.488,6.149h-1.731
			l-2.229-5.791h-2.548v5.791h-1.612v-13.272H180.487z M178.238,139.604h2.01c1.652,0,2.587-0.914,2.587-2.547
			c0-1.452-0.875-2.269-2.467-2.269h-2.13V139.604z"/>
		<path fill="#FFFFFF" d="M186.498,142.013v0.061c0,2.468,0.756,3.701,2.269,3.701c1.034,0,1.572-0.517,2.01-1.95l1.354,0.316
			c-0.498,1.911-1.633,2.868-3.423,2.868c-2.389,0-3.762-1.831-3.762-5.036c0-3.283,1.473-5.333,3.821-5.333
			c1.233,0,2.268,0.617,2.806,1.652c0.558,1.114,0.657,1.61,0.716,3.721H186.498z M188.607,137.874
			c-1.175,0-1.871,0.994-2.052,2.926h4.081C190.637,138.93,189.9,137.874,188.607,137.874z"/>
		<path fill="#FFFFFF" d="M200.93,136.64c-0.199-0.039-0.277-0.039-0.398-0.039c-0.616,0-0.915,0.338-1.034,1.233
			c0.518,0.717,0.756,1.373,0.756,2.209c0,1.93-1.394,3.345-3.304,3.345c-0.417,0-0.656-0.041-1.214-0.16
			c-0.597,0.197-0.815,0.418-0.815,0.895c0,0.656,0.397,0.915,1.532,0.955c0.278,0.021,0.637,0.021,1.054,0.039
			c1.175,0.062,1.573,0.121,2.131,0.259c1.073,0.259,1.612,1.016,1.612,2.249c0,1.812-1.513,2.867-4.16,2.867
			c-2.508,0-3.92-0.936-3.92-2.588c0-1.015,0.418-1.611,1.312-1.95c-0.696-0.458-0.915-0.855-0.915-1.514
			c0-0.854,0.398-1.431,1.254-1.809c-0.815-0.818-1.115-1.514-1.115-2.588c0-1.91,1.434-3.403,3.284-3.403
			c0.657,0,0.955,0.078,1.633,0.438c0.237-1.215,0.735-1.692,1.771-1.692c0.08,0,0.18,0,0.317,0c0.041,0,0.12,0,0.22,0V136.64z
			 M194.66,147.645c0,1.154,0.777,1.652,2.529,1.652c1.67,0,2.565-0.537,2.565-1.593c0-0.478-0.198-0.855-0.557-1.056
			c-0.318-0.179-0.775-0.258-1.692-0.277l-1.333-0.021l-0.676-0.019C194.899,146.67,194.66,147.067,194.66,147.645z
			 M196.949,137.874c-1.054,0-1.73,0.855-1.73,2.209c0,1.313,0.677,2.169,1.751,2.169c1.054,0,1.791-0.896,1.791-2.169
			c0-1.313-0.657-2.209-1.731-2.209H196.949z"/>
		<path fill="#FFFFFF" d="M202.285,135.186v-1.711h1.593v1.711H202.285z M203.818,136.917v9.812h-1.453v-9.812H203.818z"/>
		<path fill="#FFFFFF" d="M212.856,141.933c0,3.245-1.354,5.076-3.781,5.076c-2.408,0-3.742-1.852-3.742-5.175
			c0-3.345,1.334-5.194,3.763-5.194C211.562,136.64,212.856,138.471,212.856,141.933z M206.925,141.813
			c0,2.608,0.757,3.962,2.171,3.962c1.412,0,2.148-1.354,2.148-3.94c0-2.606-0.736-3.96-2.148-3.96
			C207.682,137.874,206.925,139.228,206.925,141.813z"/>
		<path fill="#FFFFFF" d="M216.144,136.917v1.533c0.558-1.293,1.295-1.811,2.527-1.811c0.855,0,1.612,0.318,2.05,0.855
			c0.238,0.278,0.397,0.638,0.478,1.035c0.08,0.457,0.119,0.855,0.119,1.95v6.248h-1.452v-6.049c0-1.076-0.021-1.255-0.101-1.692
			c-0.158-0.756-0.616-1.113-1.432-1.113c-0.577,0-1.035,0.179-1.373,0.597c-0.558,0.656-0.718,1.413-0.718,2.966v5.292h-1.452
			v-9.812H216.144z"/>
		<path fill="#FFFFFF" d="M223.609,139.166c0.339-1.591,1.613-2.526,3.483-2.526c0.796,0,1.493,0.197,2.05,0.558
			c0.398,0.277,0.718,0.637,0.876,1.074c0.218,0.557,0.259,1.016,0.259,2.427v2.887c0,2.07,0.02,2.387,0.18,3.144h-1.395
			c-0.1-0.677-0.118-0.936-0.118-1.751c-0.318,0.638-0.479,0.856-0.776,1.194c-0.518,0.557-1.194,0.837-2.051,0.837
			c-1.751,0-2.886-1.175-2.886-2.967c0-2.189,1.553-3.423,4.3-3.423c0.458,0,0.696,0.021,1.293,0.079v-0.418
			c0-1.67-0.557-2.406-1.851-2.406c-1.016,0-1.651,0.496-1.931,1.532L223.609,139.166z M227.689,141.736
			c-1.969,0-2.925,0.754-2.925,2.366c0,1.076,0.597,1.673,1.651,1.673c1.453,0,2.448-1.295,2.448-3.205
			c0-0.157-0.02-0.338-0.04-0.695C228.308,141.754,228.107,141.736,227.689,141.736z"/>
		<path fill="#FFFFFF" d="M234.361,133.456v13.272h-1.452v-13.272H234.361z"/>
		<path fill="#FFFFFF" d="M245.091,133.456l3.543,13.272h-1.612l-0.995-3.8h-3.979l-0.956,3.8h-1.631l3.721-13.272H245.091z
			 M244.037,135.029l-1.673,6.627h3.324L244.037,135.029z"/>
		<path fill="#FFFFFF" d="M254.708,139.465c-0.379-1.095-0.977-1.591-1.911-1.591c-0.995,0-1.692,0.615-1.692,1.492
			c0,0.677,0.419,1.135,1.274,1.394l1.015,0.299c0.955,0.277,1.492,0.535,1.99,0.896c0.637,0.437,1.016,1.193,1.016,2.03
			c0,1.77-1.474,3.024-3.563,3.024c-1.989,0-3.124-0.917-3.521-2.807l1.354-0.298c0.259,1.273,0.975,1.87,2.269,1.87
			c1.153,0,1.97-0.658,1.97-1.611c0-0.419-0.198-0.816-0.558-1.076c-0.278-0.22-0.617-0.357-1.373-0.598
			c-1.552-0.477-1.99-0.655-2.468-1.074c-0.497-0.418-0.835-1.135-0.835-1.83c0-1.651,1.392-2.945,3.204-2.945
			c0.954,0,1.811,0.357,2.367,0.976c0.379,0.417,0.498,0.715,0.737,1.532L254.708,139.465z"/>
		<path fill="#FFFFFF" d="M262.513,139.465c-0.378-1.095-0.975-1.591-1.911-1.591c-0.994,0-1.691,0.615-1.691,1.492
			c0,0.677,0.418,1.135,1.273,1.394l1.015,0.299c0.956,0.277,1.493,0.535,1.991,0.896c0.637,0.437,1.015,1.193,1.015,2.03
			c0,1.77-1.473,3.024-3.562,3.024c-1.991,0-3.124-0.917-3.522-2.807l1.353-0.298c0.259,1.273,0.977,1.87,2.27,1.87
			c1.154,0,1.969-0.658,1.969-1.611c0-0.419-0.198-0.816-0.557-1.076c-0.278-0.22-0.616-0.357-1.374-0.598
			c-1.552-0.477-1.988-0.655-2.467-1.074c-0.497-0.418-0.836-1.135-0.836-1.83c0-1.651,1.394-2.945,3.204-2.945
			c0.956,0,1.812,0.357,2.367,0.976c0.379,0.417,0.499,0.715,0.737,1.532L262.513,139.465z"/>
		<path fill="#FFFFFF" d="M266.935,142.013v0.061c0,2.468,0.755,3.701,2.268,3.701c1.034,0,1.573-0.517,2.011-1.95l1.353,0.316
			c-0.497,1.911-1.631,2.868-3.423,2.868c-2.388,0-3.761-1.831-3.761-5.036c0-3.283,1.473-5.333,3.82-5.333
			c1.235,0,2.269,0.617,2.808,1.652c0.556,1.114,0.656,1.61,0.715,3.721H266.935z M269.043,137.874c-1.174,0-1.87,0.994-2.05,2.926
			h4.08C271.073,138.93,270.338,137.874,269.043,137.874z"/>
		<path fill="#FFFFFF" d="M275.337,134.49v2.427h1.931v1.194h-1.931v4.938c0,1.352,0.04,1.711,0.198,2.067
			c0.18,0.4,0.617,0.619,1.314,0.619c0.298,0,0.457-0.021,0.875-0.102v1.215c-0.617,0.12-0.875,0.16-1.334,0.16
			c-0.836,0-1.452-0.219-1.851-0.618c-0.537-0.536-0.657-1.153-0.657-3.342v-4.938h-1.412v-1.194h1.412v-2.288L275.337,134.49z"/>
		<path fill="#FFFFFF" d="M219.312,152.196c3.762,0,6.071,2.487,6.071,6.527c0,4.12-2.37,6.747-6.071,6.747h-2.865v-13.274H219.312z
			 M218.059,164.136h1.254c2.746,0,4.339-1.95,4.339-5.274c0-3.344-1.612-5.331-4.339-5.331h-1.254V164.136z"/>
		<path fill="#FFFFFF" d="M227.477,153.927v-1.711h1.593v1.711H227.477z M229.009,155.659v9.811h-1.452v-9.811H229.009z"/>
		<path fill="#FFFFFF" d="M235.838,158.206c-0.379-1.096-0.976-1.594-1.91-1.594c-0.996,0-1.692,0.619-1.692,1.493
			c0,0.677,0.419,1.135,1.273,1.394l1.016,0.298c0.956,0.28,1.492,0.539,1.99,0.896c0.637,0.439,1.016,1.193,1.016,2.03
			c0,1.771-1.474,3.024-3.562,3.024c-1.99,0-3.125-0.914-3.522-2.806l1.354-0.299c0.259,1.273,0.975,1.87,2.269,1.87
			c1.153,0,1.969-0.654,1.969-1.611c0-0.418-0.198-0.815-0.556-1.074c-0.279-0.218-0.618-0.357-1.374-0.597
			c-1.552-0.477-1.989-0.658-2.468-1.073c-0.497-0.419-0.835-1.136-0.835-1.833c0-1.65,1.392-2.944,3.204-2.944
			c0.954,0,1.811,0.358,2.367,0.975c0.379,0.418,0.498,0.717,0.736,1.531L235.838,158.206z"/>
		<path fill="#FFFFFF" d="M241.055,153.229v2.431h1.931v1.193h-1.931v4.936c0,1.353,0.041,1.71,0.199,2.07
			c0.18,0.396,0.617,0.615,1.313,0.615c0.299,0,0.458-0.019,0.876-0.099v1.215c-0.618,0.118-0.876,0.157-1.334,0.157
			c-0.836,0-1.453-0.219-1.851-0.615c-0.538-0.539-0.657-1.154-0.657-3.344v-4.936h-1.412v-1.193h1.412v-2.289L241.055,153.229z"/>
		<path fill="#FFFFFF" d="M245.813,155.659v2.049c0.358-0.917,0.558-1.295,1.074-1.731c0.438-0.397,0.937-0.597,1.414-0.597
			c0.1,0,0.159,0,0.338,0.021v1.649c-0.199-0.038-0.279-0.038-0.379-0.038c-1.452,0-2.288,1.253-2.288,3.382v5.076h-1.452v-9.811
			H245.813z"/>
		<path fill="#FFFFFF" d="M249.517,153.927v-1.711h1.593v1.711H249.517z M251.05,155.659v9.811h-1.453v-9.811H251.05z"/>
		<path fill="#FFFFFF" d="M258.097,159.001c-0.12-0.715-0.14-0.855-0.259-1.234c-0.238-0.775-0.756-1.154-1.572-1.154
			c-1.452,0-2.011,1.175-2.011,4.279c0,2.489,0.657,3.621,2.07,3.621c0.477,0,0.916-0.178,1.194-0.494
			c0.318-0.4,0.457-0.837,0.577-1.874l1.473,0.181c-0.219,1.373-0.358,1.77-0.837,2.389c-0.497,0.636-1.433,1.033-2.527,1.033
			c-2.327,0-3.542-1.77-3.542-5.135c0-3.422,1.255-5.232,3.662-5.232c0.975,0,1.771,0.319,2.289,0.935
			c0.497,0.578,0.677,1.036,0.955,2.388L258.097,159.001z"/>
		<path fill="#FFFFFF" d="M262.617,153.229v2.431h1.931v1.193h-1.931v4.936c0,1.353,0.04,1.71,0.198,2.07
			c0.18,0.396,0.618,0.615,1.314,0.615c0.298,0,0.458-0.019,0.875-0.099v1.215c-0.617,0.118-0.875,0.157-1.333,0.157
			c-0.836,0-1.453-0.219-1.852-0.615c-0.536-0.539-0.656-1.154-0.656-3.344v-4.936h-1.412v-1.193h1.412v-2.289L262.617,153.229z"/>
	</g>
</g>
</svg>
