<?xml version="1.0" encoding="UTF-8"?>
<svg width="100pt" height="100pt" version="1.1" viewBox="0 0 100 100" xmlns="http://www.w3.org/2000/svg">
 <path d="m17.688 5c-1.4648 0.15234-2.6953 1.5273-2.6875 3v84c0 1.5703 1.4297 3 3 3h64c1.5703 0 3-1.4297 3-3v-70c0.003906-0.78516-0.32031-1.5664-0.875-2.125l-14-14c-0.55859-0.55469-1.3398-0.875-2.125-0.875h-50c-0.10547-0.003906-0.20703-0.003906-0.3125 0zm3.3125 6h42v13c0 1.5703 1.4297 3 3 3h13v62h-58zm48 2.2188l7.7812 7.7812h-7.7812zm-22 22.781c-2.5 0-4.6914 1.1289-6.0312 2.6875s-1.9688 3.4492-1.9688 5.3125c0 2.8086 1.3516 4.8086 2.6562 6.9688 0.76172 1.2617 1.5586 2.5352 2.2812 3.7188-1.2891 3.7773-2.8672 8.0469-4.4062 11.438-1.7656 0.41406-3.8281 0.87109-5.8438 1.5938-1.8047 0.64844-3.6133 1.5312-5.125 3.0312s-2.5625 3.7617-2.5625 6.25c0 1.6523 0.54688 3.3164 1.75 4.6875s3.1406 2.3125 5.25 2.3125c4.5547 0 7.8125-3.1836 9.9375-6.3438 1.4297-2.125 2.4531-4.3242 3.1562-6.2812 3.0391-0.99219 6.4492-1.9609 9.4688-2.7188 2.6055 2.4375 5.875 5.3438 10.438 5.3438 4.8906 0 8-3.8984 8-7.4062 0-1.8125-0.63281-3.6992-2.0312-5.1875s-3.5586-2.4062-5.9688-2.4062c-2.8125 0-5.3867 0.92578-7.75 1.875-2.0117-2.2617-4.3984-5.2383-6.0625-7.7188 0.37891-0.91406 0.75391-1.8672 1.125-2.7812 0.85547-2.1172 1.6875-4.0469 1.6875-6.375 0-1.6992-0.52734-3.4766-1.8125-5.0938s-3.5391-2.9062-6.1875-2.9062zm0 6c0.93359 0 1.1797 0.22656 1.5 0.625s0.5 1.1445 0.5 1.375c0 0.41016-0.44922 2.1523-1.25 4.125-0.097656 0.24219-0.21094 0.5625-0.3125 0.8125-0.21484-0.34375-0.45703-0.76562-0.65625-1.0938-1.1797-1.9531-1.7812-3.7539-1.7812-3.8438 0-0.35547 0.19922-1.0195 0.53125-1.4062s0.64453-0.59375 1.4688-0.59375zm1.875 16.656c1.2578 1.7305 2.3242 3.1289 3.6562 4.6562-2.0977 0.54688-3.9766 1.0586-6.125 1.7188 0.90625-2.2305 1.6953-4.1602 2.4688-6.375zm17.125 6.3438c1.0391 0 1.3555 0.24609 1.5938 0.5s0.40625 0.66016 0.40625 1.0938c0 0.35938 0.066406 1.4062-2 1.4062-0.94922 0-2.4062-0.84766-4-2 1.6602-0.58203 3.0859-1 4-1zm-27.094 7.5312c-0.31641 0.60156-0.56641 1.2305-0.9375 1.7812-1.5742 2.3398-3.3125 3.6875-4.9688 3.6875-0.56641 0-0.62109-0.13281-0.75-0.28125s-0.25-0.4375-0.25-0.71875c0-1.043 0.22656-1.4492 0.78125-2s1.5898-1.1406 2.9375-1.625c0.94141-0.33594 2.082-0.58203 3.1875-0.84375z"/>
</svg>
